. 
 
http://www.torrenting.com          :     Once & For all ;)


               www . Torrenting . Com 

(((((((((((((= Enjoy No RAR releases =))))))))))))))))))))


...................................NFO:....................................

.[IMG]http://img3.imageshack.us/img3/6774/whatsyournumberbluray.jpg[/IMG]


[color=blue][size=5][b]Whats.Your.Number.2011.DC.2011.BDRip.XVID.AC3.HQ.Hive-CM8[/b][/size][/color]


[b]Thx Hive

CM8 Doing It Right The First Time :D


Source: Bluray

Video: 720x384 @bitrate 1700 2pass
Audio: English DTS to AC3 5.1 @448
Sample: Yes, included[/b]
 
http://www.imdb.com/title/tt0770703/


General
Complete name                  : Whats.Your.Number.2011.DC.2011.BDRip.XVID.AC3.HQ.Hive-CM8.avi
Format                         : AVI
Format/Info                    : Audio Video Interleave
File size                      : 1.77 GiB
Duration                       : 1h 57mn
Overall bit rate               : 2 156 Kbps
Writing application            : Nandub v1.0rc2
Writing library                : Nandub build 1853/release

Video
ID                             : 0
Format                         : MPEG-4 Visual
Format profile                 : Advanced Simple@L5
Format settings, BVOP          : 1
Format settings, QPel          : Yes
Format settings, GMC           : No warppoints
Format settings, Matrix        : Default (H.263)
Muxing mode                    : Packed bitstream
Codec ID                       : XVID
Codec ID/Hint                  : XviD
Duration                       : 1h 57mn
Bit rate                       : 1 699 Kbps
Width                          : 720 pixels
Height                         : 384 pixels
Display aspect ratio           : 1.850
Frame rate                     : 23.976 fps
Color space                    : YUV
Chroma subsampling             : 4:2:0
Bit depth                      : 8 bits
Scan type                      : Progressive
Compression mode               : Lossy
Bits/(Pixel*Frame)             : 0.256
Stream size                    : 1.39 GiB (79%)
Writing library                : XviD 1.2.1 (UTC 2008-12-04)

Audio
ID                             : 1
Format                         : AC-3
Format/Info                    : Audio Coding 3
Mode extension                 : CM (complete main)
Codec ID                       : 2000
Duration                       : 1h 57mn
Bit rate mode                  : Constant
Bit rate                       : 448 Kbps
Channel(s)                     : 6 channels
Channel positions              : Front: L C R, Side: L R, LFE
Sampling rate                  : 48.0 KHz
Bit depth                      : 16 bits
Compression mode               : Lossy
Stream size                    : 376 MiB (21%)
Alignment                      : Split accross interleaves
Interleave, duration           : 42 ms (1.00 video frame)
Interleave, preload duration   : 500 ms


Plot:
A woman looks back at the past twenty men she's had relationships with
in her life and wonders if one of them might be her one true love.


Cast:
Anna Faris       ...    Ally Darling
Chris Evans      ...    Colin Shea
Ari Graynor      ...    Daisy Darling
Blythe Danner    ...    Ava Darling


[img]http://img543.imageshack.us/img543/4823/77542048.png[/img]
[img]http://img825.imageshack.us/img825/5361/whwh.png[/img]
[img]http://img717.imageshack.us/img717/3365/whwhwwhwwhhh.png[/img]
[img]http://img6.imageshack.us/img6/1961/whwwhh.png[/img]
[img]http://img233.imageshack.us/img233/4008/whwwwhhh.png[/img]
[img]http://img688.imageshack.us/img688/3025/whwhwhwhwwhwwhhh.png[/img]
[img]http://img109.imageshack.us/img109/5420/whwhwhwwhwwhhh.png[/img]
[img]http://img195.imageshack.us/img195/341/whwwhwwhhh.png[/img]



Greetz

ViSiON,SPK,SceneLovers,SANTi,3LT0N,YanKeeS,MAGNET,THC,T0XiC,LKRG,Feel-Free,FLAWL3SS,
WBZ,BHRG,26K,NOVA,D2U,Rapeseed,SAFC,goldadvance,KaN1vE,Unevano,Pinnz,Wayne
Mr Hive,and most P2P groups
Great Work Guys :D

LOOKING FOR ANYTHING YOU WANT TO LOOK AND SOUND BETTER

CM8@hushmail.com